<svg width="61" height="61" viewBox="0 0 61 61" fill="none" xmlns="http://www.w3.org/2000/svg">
<path d="M59.078 33.0644H30.0139C29.5243 33.0644 29.1274 32.6675 29.1274 32.1779V1.15089C29.1274 0.661297 29.5243 0.264404 30.0139 0.264404C38.0309 0.264404 45.5681 3.38635 51.2369 9.0553C56.9058 14.7241 60.0278 22.2613 60.0278 30.2783C60.0278 30.905 60.0059 31.5633 59.9626 32.2349C59.9326 32.7014 59.5454 33.0644 59.078 33.0644ZM30.9004 31.2914H58.2356C58.2485 30.9459 58.2548 30.6074 58.2548 30.2783C58.2548 15.0027 46.064 2.52089 30.9004 2.05105V31.2914Z" fill="#A6F750"/>
<path d="M30.0139 60.2922C29.5243 60.2922 29.1274 59.8954 29.1274 59.4058V32.178C29.1274 31.6884 29.5243 31.2915 30.0139 31.2915H59.078C59.323 31.2915 59.5571 31.3929 59.7246 31.5716C59.8922 31.7503 59.9784 31.9906 59.9626 32.235C59.4732 39.8343 56.1409 46.9025 50.5795 52.1376C44.9933 57.3962 37.6896 60.2922 30.0139 60.2922ZM30.9004 33.0645V58.5055C45.0372 58.0649 56.7388 47.1205 58.1168 33.0645H30.9004Z" fill="#A6F750"/>
<path d="M42.0445 21.0337C39.1116 21.0337 36.7256 18.6477 36.7256 15.7148C36.7256 15.6797 36.7265 15.6449 36.7275 15.6102L36.7281 15.5843C36.7828 13.3389 38.253 11.3604 40.3869 10.6608C40.9227 10.485 41.4806 10.396 42.0446 10.396C44.9775 10.396 47.3635 12.782 47.3635 15.7149C47.3635 16.5022 47.1946 17.2614 46.8614 17.9713C46.1745 19.4343 44.8274 20.5266 43.258 20.8931C42.8588 20.9863 42.4505 21.0337 42.0445 21.0337ZM42.0445 12.1688C41.6684 12.1688 41.2966 12.2282 40.9392 12.3455C39.5169 12.8118 38.5368 14.1305 38.5005 15.627L38.4996 15.6588C38.4992 15.6774 38.4986 15.696 38.4986 15.7148C38.4986 17.67 40.0893 19.2607 42.0445 19.2607C42.3148 19.2607 42.5873 19.2291 42.8545 19.1666C43.9004 18.9223 44.7982 18.1938 45.2564 17.2178C45.478 16.7455 45.5904 16.2398 45.5904 15.7148C45.5904 13.7596 43.9997 12.1688 42.0445 12.1688Z" fill="#A6F750"/>
<path d="M30.0139 46.3618C22.0935 46.3618 14.6333 44.7454 9.00758 41.8102C3.19895 38.7796 0 34.6842 0 30.2785C0 25.8726 3.19895 21.7773 9.00758 18.7467C14.6333 15.8115 22.0935 14.1951 30.0139 14.1951C32.6277 14.1951 35.2264 14.3743 37.7381 14.7276C38.1836 14.7903 38.5115 15.1767 38.5007 15.6265L38.4998 15.6589C38.4994 15.6775 38.4988 15.696 38.4988 15.7148C38.4988 17.67 40.0895 19.2607 42.0447 19.2607C42.315 19.2607 42.5875 19.229 42.8547 19.1666C43.9007 18.9223 44.7984 18.1938 45.2566 17.2177C45.4492 16.8077 45.9198 16.6088 46.3482 16.7564C54.9138 19.7119 60.0277 24.7669 60.0277 30.2785C60.0277 35.6959 55.0504 40.7031 46.7132 43.6729C46.4664 43.761 46.193 43.735 45.9665 43.6021C45.7405 43.4692 45.5847 43.243 45.5415 42.9843C45.317 41.6448 44.3262 40.5385 43.0172 40.1659C42.6997 40.0756 42.3725 40.0298 42.0446 40.0298C40.0894 40.0298 38.4987 41.6205 38.4987 43.5757C38.4987 43.9432 38.5548 44.3059 38.6655 44.6533C38.7445 44.9015 38.7103 45.172 38.5722 45.3928C38.434 45.6135 38.2056 45.7624 37.9478 45.7998C35.3728 46.1728 32.7033 46.3618 30.0139 46.3618ZM30.0139 15.968C22.3738 15.968 15.2049 17.5131 9.82783 20.3185C4.63353 23.0285 1.77297 26.5657 1.77297 30.2785C1.77297 33.9912 4.63353 37.5283 9.82783 40.2382C15.2049 43.0438 22.3738 44.5889 30.0139 44.5889C32.2943 44.5889 34.5588 44.4487 36.759 44.1716C36.737 43.9743 36.7258 43.7754 36.7258 43.5757C36.7258 40.6429 39.1119 38.2568 42.0447 38.2568C42.5367 38.2568 43.0273 38.3255 43.5028 38.4607C45.1227 38.9219 46.4182 40.1329 47.0111 41.6716C54.0718 38.9465 58.2548 34.7285 58.2548 30.2785C58.2548 25.6989 53.8612 21.3938 46.4598 18.6779C45.7139 19.7818 44.5629 20.5882 43.2581 20.893C42.859 20.9863 42.4507 21.0337 42.0447 21.0337C39.3394 21.0337 37.0993 19.0036 36.7681 16.3868C34.5636 16.1087 32.2953 15.968 30.0139 15.968Z" fill="#A6F750"/>
<path d="M42.0445 48.8947C41.6672 48.8947 41.2873 48.8539 40.9155 48.7735C39.0617 48.3723 37.5523 46.9999 36.9761 45.1916C36.8098 44.6699 36.7256 44.1263 36.7256 43.5757C36.7256 40.6429 39.1116 38.2568 42.0445 38.2568C42.5365 38.2568 43.027 38.3255 43.5025 38.4607C45.4662 39.0197 46.9528 40.6802 47.2898 42.6912C47.3387 42.9818 47.3634 43.2794 47.3634 43.5757C47.3634 46.5086 44.9774 48.8947 42.0445 48.8947ZM42.0445 40.0298C40.0893 40.0298 38.4986 41.6205 38.4986 43.5757C38.4986 43.9433 38.5547 44.306 38.6653 44.6533C39.0493 45.8586 40.0552 46.7733 41.2904 47.0406C41.5392 47.0943 41.793 47.1217 42.0445 47.1217C43.9997 47.1217 45.5904 45.531 45.5904 43.5757C45.5904 43.3776 45.5739 43.1786 45.5413 42.9846C45.3168 41.6449 44.3259 40.5387 43.017 40.1659C42.6996 40.0757 42.3724 40.0298 42.0445 40.0298Z" fill="#A6F750"/>
<path d="M30.0137 60.2921C26.4884 60.2921 23.0933 57.8142 20.4539 53.3146C17.9522 49.05 16.2006 43.1133 15.5218 36.5983C15.4751 36.1495 15.7728 35.7371 16.2136 35.6405C17.8258 35.2869 18.996 33.8307 18.996 32.1779C18.996 30.4452 17.7073 28.9389 15.9983 28.6741C15.5527 28.6051 15.2301 28.2128 15.2483 27.7623C15.8805 12.0859 22.2284 0.264404 30.0137 0.264404C34.5058 0.264404 38.6868 4.23979 41.4851 11.1711C41.577 11.3987 41.5703 11.6541 41.4669 11.8766C41.3634 12.0991 41.1724 12.2688 40.9392 12.3453C39.4795 12.8239 38.4987 14.1779 38.4987 15.7146C38.4987 17.6698 40.0894 19.2605 42.0446 19.2605C42.3149 19.2605 42.5874 19.2289 42.8546 19.1664C43.0909 19.111 43.3403 19.1553 43.5434 19.2889C43.7465 19.4225 43.8858 19.6335 43.9289 19.8727C44.5273 23.2003 44.8307 26.7013 44.8307 30.2783C44.8307 33.4067 44.5969 36.4923 44.1358 39.4497C44.0967 39.7006 43.9518 39.9229 43.7379 40.0597C43.5239 40.1968 43.2615 40.2355 43.0173 40.1657C42.6997 40.0755 42.3725 40.0296 42.0446 40.0296C40.0894 40.0296 38.4987 41.6203 38.4987 43.5756C38.4987 45.2332 39.6727 46.6903 41.2905 47.0403C41.5408 47.0945 41.7555 47.2542 41.8791 47.4785C42.0027 47.7028 42.0236 47.9695 41.9358 48.2101C39.1397 55.8885 34.7942 60.2921 30.0137 60.2921ZM17.3655 37.1393C18.8231 49.5716 24.0876 58.5192 30.0137 58.5192C33.779 58.5192 37.454 54.7785 39.9448 48.4616C38.032 47.6344 36.7257 45.7163 36.7257 43.5756C36.7257 40.6427 39.1117 38.2566 42.0446 38.2566C42.2021 38.2566 42.3596 38.2637 42.5165 38.2777C42.8757 35.686 43.0577 32.9994 43.0577 30.2783C43.0577 27.1062 42.8123 23.9982 42.3276 21.0258C42.2333 21.031 42.1389 21.0335 42.0446 21.0335C39.1117 21.0335 36.7257 18.6475 36.7257 15.7146C36.7257 13.7338 37.8123 11.9552 39.5076 11.0386C37.0161 5.30521 33.5835 2.03738 30.0137 2.03738C26.8475 2.03738 23.7712 4.61135 21.3516 9.28503C18.9314 13.9601 17.4136 20.2643 17.0537 27.1036C19.2476 27.7874 20.7689 29.8093 20.7689 32.1779C20.7689 34.3846 19.3775 36.358 17.3655 37.1393Z" fill="#A6F750"/>
<path d="M30.0139 33.0646H19.8826C19.393 33.0646 18.9961 32.6677 18.9961 32.1781C18.9961 30.4454 17.7074 28.9392 15.9984 28.6744C15.8177 28.6464 15.6333 28.6322 15.4502 28.6322C13.495 28.6322 11.9042 30.2229 11.9042 32.1781C11.9042 32.6677 11.5073 33.0646 11.0177 33.0646H0.949806C0.482375 33.0646 0.0952338 32.7017 0.0652199 32.2351C0.0219088 31.5646 0 30.9063 0 30.2785C0 22.2615 3.12195 14.7244 8.7909 9.05555C14.4597 3.3866 21.9969 0.264648 30.0139 0.264648C30.5035 0.264648 30.9004 0.661541 30.9004 1.15113V32.1781C30.9004 32.6677 30.5035 33.0646 30.0139 33.0646ZM20.6968 31.2916H29.1274V2.0513C13.9638 2.52113 1.77297 15.003 1.77297 30.2785C1.77297 30.6079 1.77943 30.9465 1.79222 31.2916H10.2052C10.6285 28.7793 12.8193 26.8592 15.4503 26.8592C15.7241 26.8592 15.9999 26.8805 16.2702 26.9224C18.5791 27.28 20.3274 29.055 20.6968 31.2916Z" fill="#A6F750"/>
<path d="M30.0141 60.2922C22.3384 60.2922 15.0348 57.3962 9.4484 52.1376C3.88697 46.9025 0.554668 39.8343 0.0653276 32.235C0.0494975 31.9904 0.13574 31.7503 0.303286 31.5716C0.470831 31.3929 0.70499 31.2915 0.95004 31.2915H11.018C11.5076 31.2915 11.9045 31.6884 11.9045 32.178C11.9045 34.1332 13.4952 35.7239 15.4504 35.7239C15.7047 35.7239 15.9617 35.6958 16.2143 35.6406C17.8262 35.287 18.9964 33.8308 18.9964 32.178C18.9964 31.6884 19.3932 31.2915 19.8828 31.2915H30.0141C30.5037 31.2915 30.9006 31.6884 30.9006 32.178V59.4058C30.9006 59.8954 30.5037 60.2922 30.0141 60.2922ZM1.91124 33.0645C3.2891 47.1205 14.9908 58.0649 29.1276 58.5055V33.0645H20.6938C20.3337 35.1625 18.7199 36.906 16.5939 37.3725C16.2166 37.4551 15.832 37.4969 15.4504 37.4969C12.8196 37.4969 10.6287 35.5769 10.2053 33.0645H1.91124Z" fill="#A6F750"/>
<path d="M15.4503 37.4972C12.5174 37.4972 10.1313 35.1112 10.1313 32.1783C10.1313 29.2454 12.5174 26.8594 15.4503 26.8594C15.7241 26.8594 15.9998 26.8806 16.2701 26.9226C18.877 27.3264 20.7692 29.5368 20.7692 32.1783C20.7692 34.6574 19.0132 36.842 16.5937 37.3727C16.2164 37.4554 15.8318 37.4972 15.4503 37.4972ZM15.4503 28.6323C13.4951 28.6323 11.9043 30.2231 11.9043 32.1783C11.9043 34.1335 13.4951 35.7242 15.4503 35.7242C15.7046 35.7242 15.9615 35.6961 16.2142 35.6409C17.826 35.2873 18.9962 33.8311 18.9962 32.1783C18.9962 30.4456 17.7075 28.9393 15.9985 28.6745C15.8178 28.6465 15.6333 28.6323 15.4503 28.6323Z" fill="#A6F750"/>
</svg>
