<svg width="81" height="69" viewBox="0 0 81 69" fill="none" xmlns="http://www.w3.org/2000/svg">
<path d="M79.0894 11.5075L73.8788 12.9036C73.1593 13.0963 72.7325 13.8356 72.9252 14.555C73.1178 15.2745 73.8571 15.7013 74.5765 15.5087L79.7872 14.1125C80.4934 13.9091 80.9064 13.1776 80.7161 12.4678C80.5259 11.758 79.8028 11.3311 79.0894 11.5075H79.0894Z" fill="#A6F750"/>
<path d="M70.5237 10.2658C70.9644 10.2664 71.3774 10.0521 71.6303 9.69086L74.7241 5.27254C75.1334 4.66268 74.9799 3.83729 74.3779 3.41585C73.7759 2.99441 72.9475 3.13168 72.514 3.72529L69.4202 8.14361C69.1384 8.55661 69.1065 9.09121 69.3371 9.5349C69.5677 9.9786 70.024 10.2591 70.5237 10.2658L70.5237 10.2658Z" fill="#A6F750"/>
<path d="M79.122 21.6962L74.2329 19.4163C73.5604 19.1177 72.7735 19.4127 72.4629 20.0791C72.1524 20.7456 72.4328 21.5378 73.0939 21.8606C74.8698 22.757 76.6917 23.5601 78.5513 24.2669C79.1762 24.253 79.7102 23.8147 79.8456 23.2055C79.9811 22.5956 79.6819 21.9725 79.122 21.6962L79.122 21.6962Z" fill="#A6F750"/>
<path d="M22.6693 66.3373C30.6642 66.9688 46.1171 68.5088 54.1422 69L67.8011 65.5853C68.4344 65.4185 68.9859 65.0284 69.3537 64.4866C69.7221 63.9454 69.8817 63.2886 69.8034 62.6384C69.7257 61.9882 69.4151 61.3886 68.9292 60.9491C55.4413 49.0926 49.8152 38.5986 47.468 32.107L63.179 35.7547C64.5601 36.06 66.0013 35.6265 66.9844 34.6091C67.9681 33.5922 68.3528 32.1371 68.0012 30.7669L65.9886 23.2566H65.9892C67.8386 22.3102 69.1505 20.5661 69.546 18.5265C69.9409 16.4868 69.3762 14.3785 68.0138 12.8095C66.652 11.2412 64.6436 10.3863 62.5684 10.4917L60.5553 2.97836C60.1754 1.61475 59.1146 0.546185 57.754 0.157186C56.3928 -0.232322 54.9274 0.113237 53.8842 1.06987L40.421 13.6559C39.6282 14.2869 40.2061 15.5168 40.3891 16.2928L31.2714 18.7359C29.4526 19.2073 27.9228 20.436 27.071 22.1104L2.86948 20.5932C2.08261 20.5475 1.31502 20.8467 0.766042 21.4126C0.216988 21.9779 -0.0587481 22.7545 0.0104981 23.5396C2.61667 45.2382 20.8275 65.6144 22.6693 66.3373H22.6693ZM24.96 63.8322V63.8328C25.199 62.7251 25.3507 61.6011 25.4133 60.4699C27.4241 61.5216 30.5612 63.0755 34.3239 64.6444L24.96 63.8322ZM66.8884 16.1751C67.1027 16.9825 67.0617 17.8361 66.7704 18.6193C66.4796 19.402 65.9522 20.075 65.2623 20.5464L63.2954 13.2065V13.2059C64.1268 13.2727 64.9172 13.593 65.5596 14.1246C66.2025 14.6556 66.6661 15.3714 66.8883 16.1751H66.8884ZM55.7267 3.03993C56.0722 2.71663 56.5629 2.59864 57.0186 2.72868C57.4738 2.85932 57.8278 3.21874 57.95 3.67628L65.3958 31.4657C65.5186 31.9232 65.3922 32.4115 65.0629 32.7522C64.7336 33.0924 64.2496 33.2351 63.7878 33.1279L46.6234 29.1425C46.2116 27.6037 43.3357 16.8725 42.8535 15.0743L55.7267 3.03993ZM31.969 21.3417L41.0868 18.8986C41.2716 19.5891 43.0554 26.2446 43.1813 26.7148C40.9851 27.3048 36.2869 28.5607 34.0629 29.1579C32.6728 29.5137 31.1984 29.1067 30.1876 28.0887C29.1767 27.0701 28.7812 25.5927 29.1472 24.205C29.5139 22.8179 30.5873 21.7283 31.969 21.3418V21.3417ZM38.9357 30.6449L46.0843 44.0865L43.5444 44.7674L36.3989 31.3245L38.9357 30.6449ZM26.3147 24.763C26.2208 25.6871 26.3484 26.6209 26.6873 27.486L7.61649 26.294C6.88262 26.2627 6.25831 26.8244 6.21255 27.5577C6.16679 28.2903 6.71584 28.9255 7.44791 28.9857L26.7592 30.1927C27.2173 30.2168 27.6544 30.0025 27.9163 29.6262C29.3299 31.3114 31.49 32.1831 33.6771 31.9513L41.1628 46.0328V46.0334C41.4481 46.5722 41.9081 46.999 42.468 47.2423C43.0273 47.4855 43.6528 47.5312 44.2422 47.3717L46.7792 46.692C47.5697 46.4741 48.2186 45.9106 48.5456 45.1586C48.8725 44.4067 48.8418 43.5476 48.4619 42.8209L41.6083 29.9279L43.7894 29.3433C45.492 36.1896 50.7838 48.5898 67.1463 62.9692L53.7072 66.3292L44.9513 65.5694C38.6312 63.6604 32.5073 61.153 26.6634 58.0814C25.8519 57.6702 24.888 57.6937 24.0976 58.1434C23.3066 58.5931 22.7942 59.4094 22.7322 60.3168C22.6828 61.0753 22.5919 61.8303 22.4607 62.5793C18.123 57.5306 4.47332 40.4276 2.6994 23.2863L26.3147 24.763Z" fill="#A6F750"/>
<path d="M24.5045 36.5153C25.2227 36.5002 25.8037 35.9253 25.8259 35.2071C25.8476 34.4888 25.3034 33.8796 24.5876 33.8206L10.3886 32.9332C9.65473 32.9013 9.03042 33.463 8.98466 34.1962C8.93831 34.9295 9.48796 35.5647 10.22 35.6249C10.3019 35.6267 24.4335 36.5189 24.5045 36.5153L24.5045 36.5153Z" fill="#A6F750"/>
<path d="M27.4737 42.9539C28.21 42.9894 28.8385 42.4271 28.8849 41.6914C28.9306 40.9552 28.3774 40.3188 27.6423 40.2622L13.4427 39.3748H13.4433C12.7089 39.3429 12.0852 39.9046 12.0388 40.6379C11.993 41.3712 12.5427 42.0063 13.2748 42.0665L27.4737 42.9539Z" fill="#A6F750"/>
</svg>
