<svg width="78" height="67" viewBox="0 0 78 67" fill="none" xmlns="http://www.w3.org/2000/svg">
<path d="M28.3523 44.1794C27.9642 43.4994 27.1873 43.0144 26.4104 43.0144C25.6335 43.0144 24.8566 43.5001 24.4686 44.1794L15.4384 60.2986C15.0503 60.9786 15.3415 61.7548 15.924 62.0461C16.6041 62.4342 17.3803 62.2405 17.7692 61.5604L25.2462 48.7426L25.2455 65.4449C25.2455 66.2218 25.828 66.8043 26.5081 66.8043C27.285 66.8043 27.7706 66.2217 27.7706 65.4449L27.7699 48.7433L35.1495 61.5604C35.5376 62.2405 36.3145 62.4342 36.9946 62.0461C37.5771 61.658 37.8684 60.881 37.4803 60.2986L28.3523 44.1794Z" fill="#A6F750"/>
<path d="M70.3021 8.54324C70.3021 12.19 67.3455 15.1458 63.6988 15.1458C60.0521 15.1458 57.0962 12.19 57.0962 8.54324C57.0962 4.89653 60.0521 1.93994 63.6988 1.93994C67.3455 1.93994 70.3021 4.89653 70.3021 8.54324Z" fill="#A6F750"/>
<path d="M48.939 36.3145C48.939 37.0914 48.259 37.6739 47.5796 37.6739H5.24305C4.46615 37.6739 3.88366 37.0914 3.88366 36.3145V7.28091C3.88366 6.50401 4.46617 6.01837 5.24305 6.01837H47.5796C48.3565 6.01837 48.939 6.60088 48.939 7.28091V15.4373L52.8228 14.7573L52.8235 4.46531C52.8235 3.00905 51.6584 2.03775 50.299 2.03775H33.0141V1.94089C33.0141 0.872735 32.1403 -0.000976562 31.0722 -0.000976562H21.8477C20.7795 -0.000976562 19.9058 0.872788 19.9058 2.03852V2.13538L2.52448 2.1347C1.06823 2.1347 0 3.106 0 4.56225V39.1307C0 40.5869 1.06816 41.7526 2.52448 41.7526H50.2988C51.7551 41.7526 52.8233 40.4901 52.8233 39.1307L52.824 24.0796L48.9402 24.7597L48.939 36.3145Z" fill="#A6F750"/>
<path d="M77.4868 37.3826C75.1561 31.168 73.6998 24.7591 71.2722 18.6419C71.0778 18.1562 70.8841 17.6706 70.5922 17.2825C70.2041 16.7968 68.6503 16.5055 67.9702 16.1174C66.7077 16.7975 65.2514 17.2825 63.6976 17.2825C61.8525 17.2825 60.2019 16.6999 58.8425 15.7287C57.8712 15.1462 54.5698 16.0199 53.5017 16.3112C51.3654 16.7968 50.006 17.1849 47.8697 17.5737C45.1509 18.0594 42.4322 18.6419 39.7133 19.1275C38.2571 19.4188 37.2858 20.7782 37.5771 22.2351C37.8683 23.6914 39.2277 24.6627 40.6847 24.3714L57.1919 21.4581V63.9889C57.1919 65.6396 58.5513 66.9989 60.2019 66.9989C61.8525 66.9989 63.1151 65.6395 63.1151 64.0857L63.1158 45.0519C63.1158 44.6638 63.3102 44.3719 63.6983 44.3719C64.0864 44.3719 64.3784 44.6631 64.3784 45.0519V64.181C64.3784 65.6373 65.7378 66.803 67.3884 66.803C69.039 66.803 70.3984 65.638 70.3984 64.181V33.4967L72.6315 39.3232C73.2141 40.6826 74.7678 41.3627 76.1272 40.7795C77.3898 40.2945 77.9723 38.7407 77.4866 37.3812L77.4868 37.3826Z" fill="#A6F750"/>
<path d="M40.9672 13.3184C41.8673 13.3184 42.597 12.5887 42.597 11.6886C42.597 10.7885 41.8673 10.0588 40.9672 10.0588C40.067 10.0588 39.3374 10.7885 39.3374 11.6886C39.3374 11.8179 39.3526 11.9437 39.381 12.0643L36.0943 14.9403C35.8247 14.8384 35.5233 14.8131 35.222 14.8801C35.1249 14.88 35.0279 14.9042 34.9307 14.9283L34.9296 14.9287C34.8324 14.9528 34.7351 14.9768 34.6375 14.9768L31.3362 12.6462V12.1605C31.2386 11.1892 30.3648 10.6067 29.491 10.8011C28.5198 10.8988 27.9373 11.7725 28.1316 12.6462C28.1316 12.6873 28.1316 12.7457 28.1389 12.8069C28.149 12.8903 28.1726 12.9785 28.2285 13.0344L23.2765 20.1227C23.1524 20.0608 22.9888 20.0385 22.8109 20.0304C22.7668 20.0283 22.7217 20.0272 22.6762 20.0266C22.6179 20.0258 22.5587 20.0258 22.4995 20.0258C22.3052 20.0258 22.1115 20.1233 21.917 20.2202L18.13 17.5983V17.2102C18.0325 16.2389 17.1587 15.6564 16.2849 15.8507C15.3136 15.9484 14.7311 16.8221 14.9256 17.6959C15.0231 17.8903 15.0231 17.9872 15.1199 18.1815L8.3229 27.8917H7.74051C6.76919 27.9894 6.18667 28.8632 6.38101 29.7368C6.47866 30.7081 7.35244 31.2906 8.22622 31.0963C9.19741 30.9987 9.77993 30.1249 9.5856 29.2511C9.5856 29.0568 9.48806 28.863 9.39114 28.6687L16.0915 19.0553H16.7714C17.0634 19.0553 17.2571 18.9585 17.4514 18.764L21.1415 21.386V21.9685C21.2392 22.9398 22.1129 23.5223 22.9867 23.3279C23.9579 23.2303 24.5404 22.3566 24.3461 21.4828C24.3461 21.386 24.3461 21.1915 24.2492 21.0947L29.2012 14.0063C29.3957 14.1033 29.6869 14.1033 29.9782 14.1033C30.2637 14.0084 30.4553 13.913 30.6454 13.8182L30.6582 13.812L33.8626 16.0452V16.7252C33.9602 17.6965 34.8339 18.2791 35.7077 18.0846C36.679 17.9871 37.2615 17.1133 37.067 16.2395C37.065 16.2184 37.0625 16.1974 37.0596 16.1766C37.0561 16.1508 37.0519 16.1251 37.0473 16.0997L40.3595 13.2013C40.5473 13.2767 40.7523 13.3184 40.9672 13.3184Z" fill="#A6F750"/>
</svg>
